<svg width="16" height="16" xmlns="http://www.w3.org/2000/svg" class="bi bi-star-fill">

 <g>
  <title>background</title>
  <rect fill="none" id="canvas_background" height="402" width="582" y="-1" x="-1"/>
 </g>
 <g>
  <title>Layer 1</title>
  <path fill="#fdcc0d" id="svg_1" d="m3.612,15.443c-0.386,0.198 -0.824,-0.149 -0.746,-0.592l0.83,-4.73l-3.523,-3.356c-0.329,-0.314 -0.158,-0.888 0.283,-0.95l4.898,-0.696l2.184,-4.327c0.197,-0.39 0.73,-0.39 0.927,0l2.184,4.327l4.898,0.696c0.441,0.062 0.612,0.636 0.282,0.95l-3.522,3.356l0.83,4.73c0.078,0.443 -0.36,0.79 -0.746,0.592l-4.391,-2.256l-4.389,2.256l0.001,0z"/>
 </g>
</svg>