<svg width="16" height="16" xmlns="http://www.w3.org/2000/svg" class="bi bi-star">

 <g>
  <title>background</title>
  <rect fill="none" id="canvas_background" height="402" width="582" y="-1" x="-1"/>
 </g>
 <g>
  <title>Layer 1</title>
  <path fill="#e28426" id="svg_1" d="m2.866,14.85c-0.078,0.444 0.36,0.791 0.746,0.593l4.39,-2.256l4.389,2.256c0.386,0.198 0.824,-0.149 0.746,-0.592l-0.83,-4.73l3.522,-3.356c0.33,-0.314 0.16,-0.888 -0.282,-0.95l-4.898,-0.696l-2.184,-4.327a0.513,0.513 0 0 0 -0.927,0l-2.184,4.328l-4.898,0.696c-0.441,0.062 -0.612,0.636 -0.283,0.95l3.523,3.356l-0.83,4.73l0,-0.002zm4.905,-2.765l-3.686,1.894l0.694,-3.957a0.565,0.565 0 0 0 -0.163,-0.505l-2.906,-2.772l4.052,-0.576a0.525,0.525 0 0 0 0.393,-0.288l1.845,-3.658l1.847,3.658a0.525,0.525 0 0 0 0.393,0.288l4.052,0.575l-2.906,2.77a0.565,0.565 0 0 0 -0.163,0.506l0.694,3.957l-3.686,-1.894a0.503,0.503 0 0 0 -0.461,0l0.001,0.002z"/>
 </g>
</svg>