<svg width="16" height="16" xmlns="http://www.w3.org/2000/svg" class="bi bi-star">
 <g>
  <title>background</title>
  <rect x="-1" y="-1" width="2.625" height="2.625" id="canvas_background" fill="none"/>
 </g>

 <g>
  <title>Layer 1</title>
  <path fill="#000000" stroke="null" stroke-width="null" stroke-opacity="null" d="m1.30225,6.53623c0,0 4.40298,-0.63433 4.40298,-0.63433c0,0 2.31343,-4.14178 2.31343,-4.14178c0,0 2.2388,3.95521 2.2052,3.94883c0.0336,0.00638 4.62314,0.97653 4.62314,0.97653c0,0 -3.39551,3.32089 -3.39551,3.32089c0,0 0.82089,4.47761 0.82089,4.47761c0,0 -4.32835,-2.20149 -4.32835,-2.20149c0,0 -4.25372,2.12686 -4.25372,2.12686c0,0 0.59701,-4.51492 0.56342,-4.52131c0.03359,0.00639 -2.95148,-3.35181 -2.95148,-3.35181z" id="svg_16"/>
  <path d="m2.866,14.85c-0.078,0.444 0.36,0.791 0.746,0.593l4.39,-2.256l4.389,2.256c0.386,0.198 0.824,-0.149 0.746,-0.592l-0.83,-4.73l3.522,-3.356c0.33,-0.314 0.16,-0.888 -0.282,-0.95l-4.898,-0.696l-2.184,-4.327a0.513,0.513 0 0 0 -0.927,0l-2.184,4.328l-4.898,0.696c-0.441,0.062 -0.612,0.636 -0.283,0.95l3.523,3.356l-0.83,4.73l0,-0.002zm4.905,-2.765l-3.686,1.894l0.694,-3.957a0.565,0.565 0 0 0 -0.163,-0.505l-2.906,-2.772l4.052,-0.576a0.525,0.525 0 0 0 0.393,-0.288l1.845,-3.658l1.847,3.658a0.525,0.525 0 0 0 0.393,0.288l4.052,0.575l-2.906,2.77a0.565,0.565 0 0 0 -0.163,0.506l0.694,3.957l-3.686,-1.894a0.503,0.503 0 0 0 -0.461,0l0.001,0.002z" id="svg_1" fill="#56aaff"/>
 </g>
</svg>